<svg xmlns="http://www.w3.org/2000/svg" xml:space="preserve" id="a" x="0" y="0"
    style="enable-background:new 0 0 373.9 76.1" version="1.1" viewBox="0 0 373.9 76.1"><style>.st2{enable-background:new}</style><path d="M16.2 47.3H7.5v20.3h20.3v-8.7H16.2V47.3zm43.6.1v11.5H48.2v8.7h20.3V47.3l-8.7.1zM7.5 27.1h8.8l-.1-.1V15.5h11.6V6.8H7.5v20.3zM48.2 6.8v8.7h11.6v11.6h8.7V6.8H48.2z" style="fill:#0086ff"/><path d="M47 27.1 35.4 15.5h12.7V6.8H27.8v8.7l11.6 11.6H47zM36.6 47.3H29l9.6 9.6 1.9 2H27.8v8.7h20.4v-8.8l-5.8-5.7-5.8-5.8zm23.2-20.2v12.6l-2-2-9.6-9.6v7.7l5.7 5.7 5.8 5.8h8.8V27.1h-8.7zm-32 11.5L16.3 27.1H7.5v20.2h8.7V34.7l11.6 11.6v-7.7z" style="fill:#93eaff"/><g class="st2"><path d="M80.9 24.8c0-7.4 6.1-13.6 13.3-13.6 3.8 0 7.3 1.8 9.8 4.5L99.5 20c-1.3-1.7-3.2-2.8-5.3-2.8-3.8 0-7 3.5-7 7.7s3.2 7.7 7 7.7c2.1 0 4-1.1 5.3-2.8L104 34c-2.4 2.8-5.9 4.6-9.8 4.6-7.2-.1-13.3-6.3-13.3-13.8zM126 32.2V38h-18V11.7h6.1v20.5H126zM128.8 24.8c0-7.4 6.1-13.6 13.3-13.6 7.2 0 13.3 6.2 13.3 13.6 0 7.4-6.1 13.7-13.3 13.7-7.2 0-13.3-6.2-13.3-13.7zm20.2 0c0-4.1-3.2-7.7-6.9-7.7-3.8 0-7 3.5-7 7.7s3.2 7.7 7 7.7c3.8.1 6.9-3.5 6.9-7.7zM159.3 26.5V11.7h6.1v14.5c0 3.7 2.2 6.4 5.3 6.4 3.1 0 5.4-2.6 5.4-6.4V11.7h6.1v14.8c0 7.1-4.7 12-11.5 12-6.7 0-11.4-4.9-11.4-12zM187.4 11.7h9c8.5 0 14.5 5.5 14.5 13.2s-6 13.2-14.5 13.2h-9V11.7zm10 20.4c4.2 0 7.2-3 7.2-7.3s-3-7.2-7.2-7.2h-3.8v14.5h3.8zM225.1 11.7h6.1L242 27.3V11.7h6.1V38H242l-10.8-15.6V38h-6.1V11.7zM269.9 34h-9.6l-1.5 4h-6.9l9.8-26.4h6.9l9.8 26.4h-6.9l-1.6-4zm-1.8-4.9-3-8.1-3 8.1h6zM287.9 17.5h-7.5v-5.9h21.1v5.9H294V38h-6.1V17.5zM305.7 11.7h6.1V38h-6.1V11.7zM342.1 11.7 332.4 38h-6.9l-9.7-26.4h6.9l6.3 17 6.3-17h6.8zM352.1 17.5v4.1h12.1v5.9h-12.1v4.6h13.3V38H346V11.7h19.4v5.9h-13.3z"/></g><g class="st2"><path d="m91.5 62.7-3.4-4.8h-1.5v4.8h-3.8V47.3h7.1c3.4 0 5.8 2.2 5.8 5.3 0 2.4-1.4 4.2-3.6 4.9l3.6 5.2h-4.2zm-4.9-8.3h3c1.3 0 2.2-.7 2.2-1.8s-.9-1.8-2.2-1.8h-3v3.6zM98.6 47.3h3.8v15.4h-3.8V47.3zM105.2 55c0-4.3 3.8-7.9 8.3-7.9 4.5 0 8.3 3.6 8.3 7.9s-3.8 8-8.3 8c-4.5 0-8.3-3.7-8.3-8zm12.6 0c0-2.4-2-4.5-4.3-4.5-2.4 0-4.3 2.1-4.3 4.5s2 4.5 4.3 4.5 4.3-2.1 4.3-4.5zM123.3 60.4l2.5-2.4c.4.9 1.4 1.5 2.3 1.5 1.2 0 2.1-.9 2.1-2.2v-10h3.8v10.4c0 3.1-2.2 5.3-5.4 5.3-2.1 0-4.2-1.1-5.3-2.6zM147.4 60.3h-6l-.9 2.4h-4.3l6.1-15.4h4.3l6.1 15.4h-4.3l-1-2.4zm-1.2-2.8-1.9-4.7-1.9 4.7h3.8z"/></g></svg>